<?xml version="1.0" encoding="utf-8"?>
<!-- Svg Vector Icons : http://www.onlinewebfonts.com/icon -->
<!DOCTYPE svg PUBLIC "-//W3C//DTD SVG 1.1//EN" "http://www.w3.org/Graphics/SVG/1.1/DTD/svg11.dtd">
<svg version="1.1" xmlns="http://www.w3.org/2000/svg" xmlns:xlink="http://www.w3.org/1999/xlink" x="0px" y="0px" viewBox="0 0 1000 1000" enable-background="new 0 0 1000 1000" xml:space="preserve">
<metadata> Svg Vector Icons : http://www.onlinewebfonts.com/icon </metadata>
<g><g transform="translate(0.000000,511.000000) scale(0.100000,-0.100000)"><path d="M1829.9,3662.5c-221.6-96.6-292.3-396-136.7-582.2c122.6-146.1,4.7-139.1,2515-139.1h2300.6l4.7-1765.5c7.1-1741.9,7.1-1767.9,56.6-1831.5c91.9-124.9,167.4-162.6,315.9-162.6s223.9,37.7,315.9,162.6c47.1,63.6,49.5,96.7,56.6,1077.2l7.1,1011.2h563.4h563.4l7.1-820.3l7.1-822.6l63.6-84.8c47.1-61.3,148.5-124.9,372.4-240.4l306.4-155.6v-634.1v-636.4h-216.9h-219.2l-77.8,150.8c-183.8,355.9-594,603.4-994.7,603.4c-400.7,0-810.9-247.5-994.7-603.4l-77.8-150.8H5000.2H3432.7l-77.8,150.8c-183.9,355.9-594,603.4-994.7,603.4c-400.7,0-810.8-247.5-994.7-601.1l-77.8-150.9l-476.1-7.1c-520.9-7.1-535.1-11.8-652.9-169.7c-68.4-91.9-68.4-313.5,0-405.4c117.9-157.9,132-162.6,652.9-169.7l476.1-7.1l77.8-150.8c183.9-353.6,594-601.1,994.7-601.1c400.7,0,810.8,247.5,994.7,603.4l77.8,150.9h1567.5h1567.5l77.8-150.9c183.8-355.9,594-603.4,994.7-603.4c400.7,0,810.9,247.5,994.7,601.1l77.8,150.8l476.1,7.1c520.9,7.1,535.1,11.8,652.9,169.7c47.1,63.6,49.5,96.7,56.6,1093.7c4.7,685.9,0,1058.4-18.8,1117.3c-33,115.5-122.6,186.2-450.2,351.2l-278.2,139.1l-7.1,893.3c-7.1,860.4-9.4,898.1-56.6,959.4c-25.9,35.4-77.8,87.2-113.2,113.1c-61.3,47.1-99,49.5-886.3,56.6l-822.6,7.1l-7.1,634.1c-7.1,596.3-9.4,636.4-56.6,697.7c-25.9,35.4-77.8,87.2-113.2,113.1c-63.6,49.5-80.1,49.5-2625.8,54.2C2369.6,3693.2,1886.4,3688.5,1829.9,3662.5z M2508.7-1994.6c242.8-101.3,301.7-417.2,113.1-605.8c-153.2-153.2-370.1-153.2-523.3,0C1806.3-2310.4,2129.2-1834.3,2508.7-1994.6z M7788.7-1994.6c242.8-101.3,301.7-417.2,113.1-605.8c-153.2-153.2-370-153.2-523.3,0C7086.2-2310.4,7409.2-1834.3,7788.7-1994.6z"/><path d="M698.4,2154c-157.9-68.4-247.5-249.9-214.5-426.6c21.2-110.8,139.1-240.4,245.1-271.1c58.9-18.8,605.8-23.6,1683-18.8c1567.5,7.1,1595.8,7.1,1659.4,56.6c124.9,91.9,162.6,167.4,162.6,315.9c0,148.5-37.7,223.9-162.6,315.8c-63.6,49.5-89.6,49.5-1683,54.2C1077.9,2184.6,755,2179.9,698.4,2154z"/><path d="M321.3,645.4C163.4,577.1,73.8,395.6,106.8,218.8C128,108,245.9-21.6,351.9-52.3c58.9-18.9,549.2-23.6,1494.4-18.9c1378.9,7.1,1407.2,7.1,1470.8,56.6c124.9,91.9,162.6,167.4,162.6,315.9s-37.7,223.9-162.6,315.8c-63.6,49.5-91.9,49.5-1494.4,54.2C670.2,676.1,377.9,671.4,321.3,645.4z"/></g></g>
</svg>