<svg version="1.0" xmlns="http://www.w3.org/2000/svg"
 width="25" height="48" viewBox="0 0 1024.000000 1024.000000"
 preserveAspectRatio="xMidYMid meet">

<g transform="translate(0.000000,1024.000000) scale(0.100000,-0.100000)"
fill="#000000" stroke="none">
<path d="M1141 8305 c-284 -62 -501 -332 -501 -625 0 -237 141 -464 351 -568
158 -78 -221 -72 4129 -72 4347 0 3973 -6 4130 71 208 103 350 333 350 569 0
236 -142 466 -350 569 -158 77 217 71 -4135 70 -3296 0 -3920 -3 -3974 -14z"/>
<path d="M1141 5745 c-284 -62 -501 -332 -501 -625 0 -237 141 -464 351 -568
158 -78 -221 -72 4129 -72 4347 0 3973 -6 4130 71 208 103 350 333 350 569 0
236 -142 466 -350 569 -158 77 217 71 -4135 70 -3296 0 -3920 -3 -3974 -14z"/>
<path d="M1141 3185 c-284 -62 -501 -332 -501 -625 0 -237 141 -464 351 -568
158 -78 -221 -72 4129 -72 4347 0 3973 -6 4130 71 208 103 350 333 350 569 0
236 -142 466 -350 569 -158 77 217 71 -4135 70 -3296 0 -3920 -3 -3974 -14z"/>
</g>
</svg>
